<svg width="417" height="168" viewBox="0 0 417 168" fill="none" xmlns="http://www.w3.org/2000/svg">
<path d="M75.5 132.25H0.5L0.5 103.5L67.25 2.74998H108.5L108.5 106H126V132.25H108.5V165H75.5V132.25ZM75.5 106L75.5 37.25L31.75 106H75.5ZM211.27 167.5C203.936 167.5 197.936 167.25 193.27 166.75C188.603 166.25 183.52 165.25 178.02 163.75C172.353 162.083 167.77 159.75 164.27 156.75C160.77 153.583 157.853 149.083 155.52 143.25C153.02 137.583 151.77 130.75 151.77 122.75V45C151.77 37.3333 152.936 30.5833 155.27 24.75C157.603 18.9167 160.603 14.3333 164.27 11C167.436 8.16665 171.77 5.91666 177.27 4.24999C182.77 2.41665 188.27 1.24999 193.77 0.749995C200.103 0.416656 205.936 0.249986 211.27 0.249986C218.77 0.249986 224.77 0.499988 229.27 0.999991C233.77 1.33332 238.77 2.33332 244.27 3.99998C250.27 5.83332 255.02 8.24999 258.52 11.25C262.02 14.25 265.02 18.5833 267.52 24.25C270.02 29.9167 271.27 36.8333 271.27 45V122.75C271.27 130.417 270.02 137.167 267.52 143C265.186 148.833 262.186 153.333 258.52 156.5C255.186 159.333 250.603 161.667 244.77 163.5C239.103 165.333 233.686 166.417 228.52 166.75C223.853 167.25 218.103 167.5 211.27 167.5ZM211.77 144C218.77 144 223.77 143.583 226.77 142.75C229.77 141.75 231.77 140 232.77 137.5C233.77 135 234.27 130.917 234.27 125.25V42.5C234.27 36.8333 233.77 32.75 232.77 30.25C231.77 27.75 229.77 26.0833 226.77 25.25C223.77 24.25 218.77 23.75 211.77 23.75C204.603 23.75 199.436 24.25 196.27 25.25C193.27 26.0833 191.27 27.75 190.27 30.25C189.27 32.75 188.77 36.8333 188.77 42.5V125.25C188.77 130.917 189.27 135 190.27 137.5C191.27 140 193.27 141.75 196.27 142.75C199.436 143.583 204.603 144 211.77 144ZM365.539 132.25H290.539V103.5L357.289 2.74998L398.539 2.74998V106H416.039V132.25H398.539V165H365.539V132.25ZM365.539 106V37.25L321.789 106H365.539Z" fill="#FFDB7F"/>
</svg>
